<svg width="48" height="48" viewBox="0 0 48 48" fill="none" xmlns="http://www.w3.org/2000/svg">
<path d="M36.3795 10.1802H42.7595V34.4202H5.01953V10.1802H32.7195" stroke="black" stroke-width="1.2" stroke-miterlimit="10" stroke-linecap="round" stroke-linejoin="round"/>
<path d="M7.80078 26.0802V12.7202H39.9808V31.8802H7.80078V29.5002" stroke="black" stroke-width="1.2" stroke-miterlimit="10" stroke-linecap="round" stroke-linejoin="round"/>
<path d="M19.0601 34.42C19.0401 36.24 18.4601 37.9 17.0801 39.3" stroke="black" stroke-width="1.2" stroke-miterlimit="10" stroke-linecap="round" stroke-linejoin="round"/>
<path d="M30.7007 39.2999C29.3407 37.8999 28.7607 36.2399 28.7207 34.4199" stroke="black" stroke-width="1.2" stroke-miterlimit="10" stroke-linecap="round" stroke-linejoin="round"/>
<path d="M35.6202 39.2998H12.6602V41.6398H35.6202V39.2998Z" stroke="black" stroke-width="1.2" stroke-miterlimit="10" stroke-linecap="round" stroke-linejoin="round"/>
<path d="M28.5605 16.1798V7.57977H34.2605V6.25977" stroke="black" stroke-width="1.2" stroke-miterlimit="10" stroke-linecap="round" stroke-linejoin="round"/>
<path d="M24.1992 14.0998V6.25977" stroke="black" stroke-width="1.2" stroke-miterlimit="10" stroke-linecap="round" stroke-linejoin="round"/>
<path d="M34.2601 5.93996C34.9118 5.93996 35.4401 5.41165 35.4401 4.75996C35.4401 4.10826 34.9118 3.57996 34.2601 3.57996C33.6084 3.57996 33.0801 4.10826 33.0801 4.75996C33.0801 5.41165 33.6084 5.93996 34.2601 5.93996Z" stroke="black" stroke-width="1.2" stroke-miterlimit="10" stroke-linecap="round" stroke-linejoin="round"/>
<path d="M19.8606 16.1798V7.57977H14.1406V6.25977" stroke="black" stroke-width="1.2" stroke-miterlimit="10" stroke-linecap="round" stroke-linejoin="round"/>
<path d="M14.1409 5.93996C14.7926 5.93996 15.3209 5.41165 15.3209 4.75996C15.3209 4.10826 14.7926 3.57996 14.1409 3.57996C13.4892 3.57996 12.9609 4.10826 12.9609 4.75996C12.9609 5.41165 13.4892 5.93996 14.1409 5.93996Z" stroke="black" stroke-width="1.2" stroke-miterlimit="10" stroke-linecap="round" stroke-linejoin="round"/>
<path d="M24.1995 5.93996C24.8512 5.93996 25.3795 5.41165 25.3795 4.75996C25.3795 4.10826 24.8512 3.57996 24.1995 3.57996C23.5478 3.57996 23.0195 4.10826 23.0195 4.75996C23.0195 5.41165 23.5478 5.93996 24.1995 5.93996Z" stroke="black" stroke-width="1.2" stroke-miterlimit="10" stroke-linecap="round" stroke-linejoin="round"/>
<path d="M31.1802 26.1V18.06L24.2002 14.04L17.2402 18.06V26.1L24.2002 30.12L31.1802 26.1Z" stroke="black" stroke-width="1.2" stroke-miterlimit="10" stroke-linecap="round" stroke-linejoin="round"/>
<path d="M31.1812 18.0601L24.2012 22.0401V30.1201" stroke="black" stroke-width="1.2" stroke-miterlimit="10" stroke-linecap="round" stroke-linejoin="round"/>
<path d="M24.2002 22.0401L17.2402 18.0601" stroke="black" stroke-width="1.2" stroke-miterlimit="10" stroke-linecap="round" stroke-linejoin="round"/>
</svg>
