<svg width="48" height="48" viewBox="0 0 48 48" fill="none" xmlns="http://www.w3.org/2000/svg">
<path d="M41.7797 10.8602C41.6597 10.6402 41.4197 10.5202 41.1797 10.5202H37.7997L36.1197 7.5802C35.9997 7.3602 35.7597 7.2202 35.5197 7.2202H31.7397C31.4997 7.2202 31.2597 7.3602 31.1397 7.5602L29.5797 10.2402L28.3597 9.6002C28.3797 9.5002 28.3797 9.4002 28.3797 9.3002C28.3797 8.1402 27.4397 7.2002 26.2797 7.2002C25.1197 7.2002 24.1797 8.1402 24.1797 9.3002C24.1797 10.4602 25.1197 11.4002 26.2797 11.4002C26.8197 11.4002 27.3197 11.1802 27.6997 10.8402L29.3397 11.7002L31.1197 14.7602C31.2397 14.9802 31.4797 15.1002 31.7197 15.1002H35.0797L36.5597 17.7202L35.1597 19.8402C34.9997 19.8202 34.8397 19.8002 34.6597 19.8002C33.4997 19.8002 32.5597 20.7402 32.5597 21.9002C32.5597 23.0602 33.4997 24.0002 34.6597 24.0002C34.9797 24.0002 35.2797 23.9202 35.5597 23.8002L36.9597 25.2002C36.8197 25.4802 36.7597 25.7802 36.7597 26.1002C36.7597 27.2602 37.6997 28.2002 38.8597 28.2002C40.0197 28.2002 40.9597 27.2602 40.9597 26.1002C40.9597 24.9402 40.0197 24.0002 38.8597 24.0002C38.5397 24.0002 38.2397 24.0802 37.9597 24.2002L36.5597 22.8002C36.6997 22.5202 36.7597 22.2202 36.7597 21.9002C36.7597 21.4202 36.5997 20.9802 36.3397 20.6402L37.7797 18.4802H41.1797C41.4397 18.4802 41.6597 18.3402 41.7797 18.1202L43.6597 14.8202C43.7797 14.6002 43.7797 14.3402 43.6597 14.1202L41.7797 10.8602ZM26.2997 10.0202C25.9197 10.0202 25.5997 9.7002 25.5997 9.3202C25.5997 8.9402 25.9197 8.6202 26.2997 8.6202C26.6797 8.6202 26.9997 8.9402 26.9997 9.3202C26.9997 9.7002 26.6797 10.0202 26.2997 10.0202ZM30.6597 11.2002L32.1397 8.6402H35.0997L36.5797 11.2202L35.0997 13.7402H32.1197L30.6597 11.2002ZM33.9797 21.9002C33.9797 21.5202 34.2997 21.2002 34.6797 21.2002C35.0597 21.2002 35.3797 21.5202 35.3797 21.9002C35.3797 22.2802 35.0597 22.6002 34.6797 22.6002C34.2797 22.6002 33.9797 22.2802 33.9797 21.9002ZM39.5597 26.0802C39.5597 26.4602 39.2397 26.7802 38.8597 26.7802C38.4797 26.7802 38.1597 26.4602 38.1597 26.0802C38.1597 25.7002 38.4797 25.3802 38.8597 25.3802C39.2397 25.3802 39.5597 25.7002 39.5597 26.0802ZM40.7597 17.0802H37.7997L36.3197 14.4402L37.7997 11.9202H40.7797L42.2597 14.4802L40.7597 17.0802Z" fill="black"/>
<path d="M21.4789 21.6201C21.2589 21.6201 21.0389 21.7401 20.8989 21.9201C20.4389 22.5801 19.3789 24.2201 19.3789 25.1001C19.3789 26.2601 20.3189 27.2001 21.4789 27.2001C22.6389 27.2001 23.5789 26.2601 23.5789 25.1001C23.5789 24.2001 22.5189 22.5801 22.0589 21.9201C21.9189 21.7201 21.6989 21.6201 21.4789 21.6201ZM21.4789 25.8001C21.0989 25.8001 20.7789 25.4801 20.7789 25.1001C20.7789 24.8801 21.0789 24.2801 21.4789 23.6001C21.8789 24.2801 22.1789 24.8801 22.1789 25.1001C22.1789 25.5001 21.8589 25.8001 21.4789 25.8001Z" fill="black"/>
<path d="M26.56 23.5402V17.4202H27.26C27.64 17.4202 27.96 17.1002 27.96 16.7202V13.9202C27.96 13.5402 27.64 13.2202 27.26 13.2202H15.66C15.28 13.2202 14.96 13.5402 14.96 13.9202V16.7202C14.96 17.1002 15.28 17.4202 15.66 17.4202H16.36V23.5402L8.32 38.8602C8.12 39.2802 8 39.7202 8 40.1802C8 41.7202 9.26 42.9802 10.8 42.9802H19.7C20.08 42.9802 20.4 42.6602 20.4 42.2802C20.4 41.9002 20.08 41.5802 19.7 41.5802H10.78C10.02 41.5802 9.38 40.9602 9.38 40.1802C9.38 39.9402 9.44 39.7202 9.54 39.5202L13.82 31.3802H29.1C29.1 31.3802 33.36 39.5202 33.38 39.5202C33.5 39.7202 33.54 39.9402 33.54 40.1802C33.54 40.9402 32.92 41.5802 32.14 41.5802H26.06C25.68 41.5802 25.36 41.9002 25.36 42.2802C25.36 42.6602 25.68 42.9802 26.06 42.9802H32.14C33.68 42.9802 34.94 41.7202 34.94 40.1802C34.94 39.7202 34.82 39.2602 34.6 38.8602L26.56 23.5402ZM16.38 14.6402H26.58V16.0402H16.38V14.6402ZM14.56 30.0002L17.68 24.0402C17.74 23.9402 17.76 23.8202 17.76 23.7202V17.4202H25.16V23.7002C25.16 23.8202 25.18 23.9202 25.24 24.0202L28.38 30.0002H14.56Z" fill="black"/>
</svg>
