<svg width="48" height="48" viewBox="0 0 48 48" fill="none" xmlns="http://www.w3.org/2000/svg">
<path d="M42.5602 10.2202C43.2602 10.2202 43.8602 9.6402 43.8602 8.9202V6.4602L43.5402 6.2402C42.5402 5.5602 41.3602 5.2002 40.1402 5.2002C37.9402 5.2002 35.9802 6.3202 34.8602 8.2202H34.2002C34.1402 6.8802 33.0402 5.8002 31.6802 5.8002C31.0002 5.8002 30.3602 6.1002 29.8802 6.6002C29.4002 6.1002 28.7402 5.8002 28.0602 5.8002C27.3802 5.8002 26.7402 6.1002 26.2602 6.6002C25.7802 6.1002 25.1202 5.8002 24.4402 5.8002C23.7602 5.8002 23.1202 6.1002 22.6402 6.6002C22.1602 6.1002 21.5002 5.8002 20.8202 5.8002C19.4802 5.8002 18.3602 6.8802 18.3202 8.2202H15.2402C14.1202 6.3202 12.1602 5.2002 9.96023 5.2002C8.74023 5.2002 7.56023 5.5602 6.56023 6.2402L6.24023 6.4602V8.9202C6.24023 9.6402 6.84023 10.2202 7.56023 10.2202H10.4802V12.4402H7.56023C6.84023 12.4402 6.24023 13.0202 6.24023 13.7402V16.2202L6.56023 16.4202C7.56023 17.1002 8.74023 17.4602 9.96023 17.4602C10.2602 17.4602 10.5802 17.4402 10.9202 17.3802L10.4002 17.8802L13.5002 20.9802C13.3202 21.3602 13.1602 21.7202 13.0402 22.1002H8.66023V30.7402H13.0402C13.1602 31.1202 13.3202 31.4802 13.5002 31.8602L10.4002 34.9602L16.5202 41.0602L19.6202 37.9602C19.9802 38.1402 20.3602 38.3002 20.7202 38.4402V42.8002H29.3802V38.4402C29.7402 38.3002 30.1202 38.1402 30.4802 37.9602L33.5802 41.0602L39.7002 34.9602L36.6002 31.8602C36.7802 31.4802 36.9202 31.1202 37.0602 30.7402H41.4402V22.1002H37.0602C36.9402 21.7202 36.7802 21.3602 36.6002 20.9802L39.7002 17.8802L39.2002 17.3802C39.5202 17.4402 39.8402 17.4602 40.1402 17.4602C41.3602 17.4602 42.5402 17.1002 43.5402 16.4202L43.8602 16.2202V13.7402C43.8602 13.0202 43.2602 12.4402 42.5602 12.4402H39.6202V10.2202H42.5602ZM30.5802 8.3202C30.5802 7.7002 31.0802 7.2002 31.6802 7.2002C32.3002 7.2002 32.8002 7.7002 32.8002 8.3202V15.5602C32.8002 16.1602 32.3002 16.6602 31.6802 16.6602C31.0802 16.6602 30.5802 16.1602 30.5802 15.5602V8.3202ZM26.9602 8.3202C26.9602 7.7002 27.4602 7.2002 28.0602 7.2002C28.6802 7.2002 29.1802 7.7002 29.1802 8.3202V15.5602C29.1802 16.1602 28.6802 16.6602 28.0602 16.6602C27.4602 16.6602 26.9602 16.1602 26.9602 15.5602V8.3202ZM23.3402 8.3202C23.3402 7.7002 23.8402 7.2002 24.4402 7.2002C25.0602 7.2002 25.5602 7.7002 25.5602 8.3202V15.5602C25.5602 16.1602 25.0602 16.6602 24.4402 16.6602C23.8402 16.6602 23.3402 16.1602 23.3402 15.5602V8.3202ZM19.7202 8.3202C19.7202 7.7002 20.2202 7.2002 20.8202 7.2002C21.4402 7.2002 21.9402 7.7002 21.9402 8.3202V15.5602C21.9402 16.0202 21.6602 16.4202 21.2402 16.5802L19.7202 15.2402V8.3202ZM24.0602 20.9802C24.7802 21.6202 25.7002 20.5602 24.9802 19.9202L22.3202 17.5602C22.4402 17.4802 22.5602 17.3802 22.6402 17.2802C23.1202 17.7802 23.7802 18.0602 24.4402 18.0602C25.1202 18.0602 25.7802 17.7802 26.2602 17.2802C26.7402 17.7802 27.3802 18.0602 28.0602 18.0602C28.7402 18.0602 29.4002 17.7802 29.8802 17.2802C30.3602 17.7802 31.0002 18.0602 31.6802 18.0602C32.0802 18.0602 32.4402 17.9802 32.8002 17.8002V20.1002L29.7802 23.1202V28.7402H28.5802C27.4402 28.7402 27.4402 30.1402 28.5802 30.1402H29.7802V32.5402C28.4002 33.6002 26.7802 34.1602 25.0602 34.1602C23.3202 34.1602 21.7002 33.6002 20.3202 32.5402V30.1402H24.3802C25.4002 30.1402 25.4002 28.7402 24.3802 28.7402H20.3202V23.0802L16.0802 19.3802C15.7002 19.0402 15.5002 18.5802 15.5002 18.0802V12.8402C15.5002 12.0602 16.1202 11.4202 16.9002 11.4202C17.6802 11.4202 18.3202 12.0602 18.3202 12.8402V15.8802L24.0602 20.9802ZM32.8002 26.4202C32.8002 28.1202 32.2202 29.8002 31.1802 31.1402V23.7002L31.9602 22.9202C32.5002 24.0002 32.8002 25.2002 32.8002 26.4202ZM18.9202 23.7202V31.1402C17.8802 29.8002 17.3002 28.1202 17.3002 26.4202C17.3002 25.2402 17.5802 24.0602 18.1002 23.0002L18.9202 23.7202ZM9.96023 16.0602C9.16023 16.0602 8.36023 15.8602 7.64023 15.4602V13.8402H11.8802V8.8202H7.64023V7.2202C8.36023 6.8202 9.16023 6.6002 9.96023 6.6002C11.7602 6.6002 13.4002 7.6002 14.2002 9.2402L14.4002 9.6202H18.3202V10.4202C17.8802 10.1602 17.4002 10.0202 16.9002 10.0202C15.3602 10.0202 14.1002 11.3002 14.1002 12.8402V13.6202C13.2602 15.1202 11.6802 16.0602 9.96023 16.0602ZM34.8802 20.7202L35.1202 21.1602C35.4402 21.7802 35.7002 22.4002 35.9002 23.0002L36.0602 23.5002H40.0402V29.3402H36.0602L35.9002 29.8202C35.7002 30.4402 35.4402 31.0602 35.1202 31.6802L34.8802 32.1202L37.7202 34.9602L33.5802 39.0802L30.7602 36.2602L30.3002 36.5002C29.7002 36.8202 29.0802 37.0802 28.4602 37.2602L27.9802 37.4202V41.4002H22.1202V37.4202L21.6402 37.2602C21.0202 37.0802 20.4002 36.8202 19.8002 36.5002L19.3402 36.2602L16.5202 39.0802L12.3802 34.9602L15.2202 32.1202L14.9802 31.6802C14.6602 31.0602 14.4002 30.4402 14.2002 29.8202L14.0402 29.3402H10.0602V23.5002H14.0402L14.2002 23.0002C14.4002 22.4002 14.6602 21.7802 14.9802 21.1602L15.2202 20.7202L12.3802 17.8802L14.1002 16.1802V18.0802C14.1002 18.9802 14.4802 19.8402 15.1602 20.4202L17.0202 22.0602C16.2802 23.4002 15.9002 24.9002 15.9002 26.4202C15.9002 31.4602 20.0002 35.5602 25.0602 35.5602C30.1002 35.5602 34.2002 31.4602 34.2002 26.4202C34.2002 24.8202 33.7802 23.2602 33.0002 21.8802L34.2002 20.6802V14.4402H34.2802L37.7202 17.8802L34.8802 20.7202ZM42.4602 13.8402V15.4602C41.7402 15.8602 40.9402 16.0602 40.1402 16.0602C38.3402 16.0602 36.7202 15.0602 35.9002 13.4402L35.7002 13.0402H34.2002V9.6202H35.7002L35.9002 9.2402C36.7202 7.6002 38.3402 6.6002 40.1402 6.6002C40.9402 6.6002 41.7402 6.8202 42.4602 7.2202V8.8202H38.2202V13.8402H42.4602Z" fill="black"/>
</svg>
