<svg width="48" height="48" viewBox="0 0 48 48" fill="none" xmlns="http://www.w3.org/2000/svg">
<path d="M27.1199 23.96V24.88C27.0199 24.6 27.0199 24.3 27.1199 23.96Z" fill="black"/>
<path d="M32.7401 23.2399L30.5001 25.4799C29.1001 26.8799 27.4201 26.1399 27.1201 24.8799V23.9599C27.2201 23.5799 27.4201 23.1799 27.8201 22.7999L28.6801 21.9199L27.1401 20.3799V23.9799C27.0401 24.3199 27.0401 24.6199 27.1401 24.8999V25.2999H18.5601V24.8799C18.6401 24.5999 18.6601 24.2799 18.5601 23.9599V20.3799L17.0001 21.9199L17.8801 22.7999C18.2601 23.1799 18.4801 23.5599 18.5801 23.9399V24.8599C18.2401 26.1399 16.5801 26.8799 15.1801 25.4799L12.9601 23.2399C12.1201 22.3999 12.1201 21.0399 12.9601 20.2199L16.8601 16.3199C18.0601 15.0999 19.6801 14.4399 21.3801 14.4399H24.3201C26.0201 14.4399 27.6601 15.0999 28.8401 16.3199L32.7401 20.2199C33.5801 21.0599 33.5801 22.4199 32.7401 23.2399Z" stroke="black" stroke-width="1.3" stroke-miterlimit="10" stroke-linecap="round" stroke-linejoin="round"/>
<path d="M18.5605 24.8599V23.9399C18.6605 24.2799 18.6405 24.5799 18.5605 24.8599Z" fill="black"/>
<path d="M22.84 12.4398C24.6846 12.4398 26.18 10.9444 26.18 9.09977C26.18 7.25513 24.6846 5.75977 22.84 5.75977C20.9954 5.75977 19.5 7.25513 19.5 9.09977C19.5 10.9444 20.9954 12.4398 22.84 12.4398Z" stroke="black" stroke-width="1.3" stroke-miterlimit="10"/>
<path d="M18.5605 32.1398V25.2998H22.8405" stroke="black" stroke-width="1.3" stroke-miterlimit="10" stroke-linecap="round" stroke-linejoin="round"/>
<path d="M22.8405 25.2998H27.1205V39.8998C27.1205 41.1198 26.1605 42.0998 24.9805 42.0998C23.8005 42.0998 22.8405 41.1198 22.8405 39.8998V29.4798V39.8998C22.8405 41.1198 21.8805 42.0998 20.7005 42.0998C19.5205 42.0998 18.5605 41.1198 18.5605 39.8998V36.7798" stroke="black" stroke-width="1.3" stroke-miterlimit="10" stroke-linecap="round" stroke-linejoin="round"/>
<path d="M27.1191 33.1397H38.1591L31.7791 24.2197" stroke="black" stroke-width="1.3" stroke-miterlimit="10" stroke-linecap="round" stroke-linejoin="round"/>
</svg>
