<svg width="35" height="48" viewBox="0 0 35 48" fill="none" xmlns="http://www.w3.org/2000/svg">
<path d="M21.4736 15.4462C9.0625 13.6151 5.22488 21.7196 4.97056 26.3822C3.47274 24.8563 2.4273 24.602 1.6643 25.3649C0.765106 26.2641 2.68162 27.9082 2.68162 27.9082C2.68162 27.9082 0.39274 28.9255 1.15572 30.7058C2.17303 32.4861 5.19675 30.7058 5.19675 30.7058C5.19675 30.7058 7.0618 33.8425 7.99433 34.775C11.4532 34.775 13.5047 37.4878 14.0981 38.8442H22.2366C24.0677 35.1819 27.5774 34.6054 29.1034 34.775C30.7311 33.7577 31.3075 31.8079 31.3923 30.9601H33.9356V23.076H31.3923C31.1888 21.4483 29.1034 19.3459 28.0861 18.4981V13.9203C25.0342 13.3099 21.7279 17.2265 20.4563 19.2611C20.0494 18.2438 20.9649 16.294 21.4736 15.4462Z" stroke="black" stroke-width="1.5"/>
<circle cx="7.29062" cy="42.2096" r="1.8" stroke="black" stroke-width="1.2"/>
<circle cx="28.1461" cy="42.2096" r="1.8" stroke="black" stroke-width="1.2"/>
<circle cx="7.29063" cy="42.2096" r="4.65" stroke="black" stroke-width="1.5"/>
<circle cx="28.1461" cy="42.2096" r="4.65" stroke="black" stroke-width="1.5"/>
<circle cx="18.1418" cy="6.61247" r="5.86247" stroke="black" stroke-width="1.5"/>
</svg>
