<svg width="48" height="48" viewBox="0 0 48 48" fill="none" xmlns="http://www.w3.org/2000/svg">
<path d="M42.6811 34.9999C42.5211 34.1999 42.0411 33.4999 41.3411 33.0599C40.6411 32.6199 39.8211 32.4799 39.0211 32.6599L35.3011 33.4999V31.9999C36.0411 31.2999 36.8211 30.3799 37.3811 29.5399C38.3411 28.0799 39.0411 26.4599 39.4211 24.7599C39.8811 22.7199 39.8811 20.5799 39.4411 18.5399C39.3611 18.1599 38.9811 17.9199 38.6211 17.9999C38.2411 18.0599 38.0011 18.4399 38.0811 18.8199C38.4811 20.6599 38.4611 22.6199 38.0611 24.4599C37.7211 25.9999 37.1011 27.4599 36.2211 28.7799C35.9611 29.1799 35.6411 29.5799 35.3211 29.9799V22.2799C35.3211 21.8999 35.0011 21.5799 34.6211 21.5799H29.1211V14.1399C29.1211 13.7599 28.8211 13.4399 28.4211 13.4399L22.2211 13.4199C22.0411 13.4199 21.8611 13.4999 21.7211 13.6199C21.5811 13.7599 21.5211 13.9199 21.5211 14.1199V17.9799H16.0411C15.6611 17.9799 15.3411 18.2999 15.3411 18.6799V25.5599H13.7811V24.6199C13.7811 24.2399 13.4611 23.9199 13.0811 23.9199H12.3811C12.2611 23.2599 12.1811 22.5799 12.1811 21.8999C12.1411 20.2599 12.4011 18.6399 12.9611 17.0999C13.0811 16.7399 13.2211 16.3999 13.3811 16.0399C13.5411 15.6999 13.4011 15.2799 13.0411 15.1199C12.7011 14.9599 12.2811 15.1199 12.1211 15.4599C11.9411 15.8399 11.7811 16.2399 11.6411 16.6399C11.0211 18.3399 10.7411 20.1199 10.7811 21.9399C10.8011 22.5999 10.8611 23.2799 10.9611 23.9399H7.82109C7.44109 23.9399 7.12109 24.2599 7.12109 24.6399V36.8599C7.12109 37.2399 7.44109 37.5599 7.82109 37.5599H13.0811C13.4611 37.5599 13.7811 37.2399 13.7811 36.8599V36.1999H16.4011L27.0011 40.3599C27.9811 40.7399 29.0211 40.9399 30.0611 40.9399C30.7611 40.9399 31.4611 40.8599 32.1411 40.6799L40.4411 38.5599C42.0211 38.1599 43.0011 36.5999 42.6811 34.9999ZM33.9211 22.9599V33.8199L32.0611 34.2399C31.8611 34.2799 31.6611 34.3199 31.4611 34.3599C30.6811 34.4599 29.9011 34.4399 29.1211 34.2999V33.2399C29.6611 32.4399 29.8211 31.4399 29.5411 30.5399C29.4611 30.2799 29.3611 30.0399 29.2211 29.8199C29.1811 29.7599 29.1611 29.7199 29.1211 29.6599V22.9799L33.9211 22.9599ZM22.9211 14.8199L27.7211 14.8399V28.5399L25.0411 27.4199L22.9211 26.5399V14.8199ZM16.7211 19.3799H21.5211V25.9799L20.6611 25.6199C20.5811 25.5799 20.4811 25.5599 20.4011 25.5599H16.7211V19.3799ZM12.4011 36.1599H8.52109V25.3199H11.8011H12.4011V36.1599ZM40.1011 37.1999L31.8011 39.3199C30.3611 39.6799 28.8811 39.5999 27.5011 39.0599L16.7811 34.8599C16.7011 34.8199 16.6211 34.8199 16.5211 34.8199H13.7811V26.9799H20.2611L24.7611 28.8399L27.2211 29.8599C28.1011 30.2199 28.5011 31.2399 28.1611 32.1199C28.0811 32.2999 28.0011 32.4599 27.8811 32.5999C27.4411 33.1399 26.7211 33.3999 26.0611 33.2199H26.0411C26.0011 33.1999 25.9611 33.1999 25.9211 33.1799L21.2411 31.3799C21.2011 31.3599 21.1811 31.3599 21.1811 31.3599C20.8211 31.2199 20.4211 31.3999 20.2811 31.7599C20.1411 32.1199 20.3211 32.5199 20.6811 32.6599C20.6811 32.6599 23.3211 33.6799 25.3411 34.4599C25.3811 34.4799 25.4211 34.4999 25.4611 34.4999L27.0011 35.0999C27.4611 35.2799 27.9411 35.4599 28.4211 35.5799C29.2411 35.7999 30.1011 35.8799 30.9611 35.8199C31.4411 35.7999 31.9211 35.7199 32.3811 35.6199L34.7811 35.0799L39.3411 34.0399C39.7811 33.9399 40.2211 34.0199 40.6011 34.2599C40.9811 34.4999 41.2211 34.8799 41.3211 35.2999C41.5011 36.1399 40.9611 36.9799 40.1011 37.1999Z" fill="black"/>
<path d="M16.0201 12.0201C16.1801 12.0201 16.3601 11.9601 16.4801 11.8401C17.7201 10.7201 19.2001 9.82006 20.7601 9.26006C22.4601 8.64006 24.3201 8.38006 26.1201 8.50006C27.4201 8.58006 28.7001 8.86006 29.9201 9.32006C30.2801 9.46006 30.6801 9.28006 30.8201 8.92006C30.9601 8.56006 30.7801 8.16006 30.4201 8.02006C29.0801 7.50006 27.6601 7.20006 26.2201 7.10006C24.2001 6.96006 22.1601 7.26006 20.2801 7.94006C18.5601 8.58006 16.9201 9.58006 15.5601 10.8001C15.2801 11.0601 15.2601 11.5001 15.5001 11.8001C15.6401 11.9401 15.8401 12.0201 16.0201 12.0201Z" fill="black"/>
<path d="M31.8208 16.9803C31.9608 17.1003 32.1208 17.1603 32.2808 17.1603C32.4808 17.1603 32.6608 17.0803 32.8008 16.9203L38.5208 10.3403C38.7808 10.0603 38.7408 9.62027 38.4608 9.36027C38.1608 9.10027 37.7408 9.14027 37.4808 9.42027L31.7408 16.0003C31.4808 16.3003 31.5208 16.7403 31.8208 16.9803Z" fill="black"/>
<path d="M36.9412 14.02C35.9812 14.02 35.2012 14.8 35.2012 15.76C35.2012 16.72 35.9812 17.5 36.9412 17.5C37.9012 17.5 38.6812 16.72 38.6812 15.76C38.6812 14.8 37.9012 14.02 36.9412 14.02ZM36.9412 16.12C36.7412 16.12 36.5812 15.96 36.5812 15.76C36.5812 15.56 36.7412 15.4 36.9412 15.4C37.1412 15.4 37.3012 15.56 37.3012 15.76C37.3012 15.96 37.1412 16.12 36.9412 16.12Z" fill="black"/>
<path d="M33.0818 12.46C34.0418 12.46 34.8218 11.68 34.8218 10.72C34.8218 9.75998 34.0418 8.97998 33.0818 8.97998C32.1218 8.97998 31.3418 9.75998 31.3418 10.72C31.3418 11.68 32.1218 12.46 33.0818 12.46ZM33.0818 10.36C33.2818 10.36 33.4418 10.52 33.4418 10.72C33.4418 10.92 33.2818 11.08 33.0818 11.08C32.8818 11.08 32.7218 10.92 32.7218 10.72C32.7218 10.52 32.8818 10.36 33.0818 10.36Z" fill="black"/>
</svg>
