<svg width="36" height="37" viewBox="0 0 36 37" fill="none" xmlns="http://www.w3.org/2000/svg">
<path d="M9.00015 8.77002H6V16.2702H9.00015V8.77002Z" fill="white"/>
<path d="M3.00015 8.77002H0V20.02H3.00015V8.77002Z" fill="white"/>
<path d="M14.9997 8.77002H12V11.7702H14.9997V8.77002Z" fill="white"/>
<path d="M12.0001 3.51972H9V0.52002H5.99985V3.51972H3.00015C1.34325 3.51972 0 4.86162 0 6.51987H14.9998C14.9998 4.86162 13.6584 3.51972 12.0001 3.51972Z" fill="white"/>
<path d="M32.9998 21.5195L30.4749 13.9433C30.2139 13.1599 29.3247 12.5195 28.4998 12.5195H16.5001L10.4998 21.5195L1.37835 25.4282C0.621 25.7531 0 26.695 0 27.5198V33.5197H4.7754C5.39505 35.2643 7.04295 36.5198 9 36.5198C10.957 36.5198 12.6049 35.2643 13.2246 33.5197H24.2757C24.8949 35.2643 26.5441 36.5198 28.4998 36.5198C30.4573 36.5198 32.1066 35.2643 32.7249 33.5197H36V24.5197C36 22.8614 34.6585 21.5195 32.9998 21.5195ZM9 33.5197C8.17065 33.5197 7.50015 32.8487 7.50015 32.0198C7.50015 31.1905 8.17065 30.5195 9 30.5195C9.82935 30.5195 10.4998 31.1905 10.4998 32.0198C10.4998 32.8487 9.82935 33.5197 9 33.5197ZM21.0001 21.5195H14.1052L18.1057 15.5197H21.0006V21.5195H21.0001ZM23.9998 21.5195V15.5197H27.8379L29.8386 21.5195H23.9998ZM28.4998 33.5197C27.6709 33.5197 27 32.8487 27 32.0198C27 31.1905 27.6709 30.5195 28.4998 30.5195C29.3292 30.5195 30.0001 31.1905 30.0001 32.0198C30.0001 32.8487 29.3292 33.5197 28.4998 33.5197Z" fill="white"/>
</svg>
