<svg width="34" height="35" viewBox="0 0 34 35" fill="none" xmlns="http://www.w3.org/2000/svg">
<g clip-path="url(#clip0_0_1906)">
<path d="M0 30.3473C0 29.8543 0.399697 29.4546 0.892749 29.4546H33.0317C33.5247 29.4546 33.9244 29.8543 33.9244 30.3473V33.5507C33.9244 34.0438 33.5247 34.4435 33.0317 34.4435H0.892749C0.399698 34.4435 0 34.0438 0 33.5507V30.3473Z" fill="white"/>
<path d="M29.9344 23.3634C29.9344 22.8703 29.5347 22.4706 29.0417 22.4706H10.9766V1.51731C10.9766 0.966252 10.5299 0.519531 9.97886 0.519531C9.4278 0.519531 8.98108 0.966252 8.98108 1.51731V22.4706H4.88494C4.39188 22.4706 3.99219 22.8703 3.99219 23.3634V26.5668C3.99219 27.0598 4.39188 27.4595 4.88494 27.4595H29.0417C29.5347 27.4595 29.9344 27.0598 29.9344 26.5668V23.3634Z" fill="white"/>
<path d="M23.1498 9.49958L27.8061 2.51514H12.9707V16.484H27.8061L23.1498 9.49958Z" fill="white"/>
</g>
<defs>
<clipPath id="clip0_0_1906">
<rect width="33.9244" height="33.9244" fill="white" transform="translate(0 0.52002)"/>
</clipPath>
</defs>
</svg>
