<svg width="36" height="37" viewBox="0 0 36 37" fill="none" xmlns="http://www.w3.org/2000/svg">
<g clip-path="url(#clip0_0_1918)">
<path d="M30.6658 34.1297L16.6206 26.6931C16.2546 26.4989 15.8082 26.5257 15.4623 26.7601L4.72253 34.1967C4.32079 34.4756 4.14671 34.9823 4.29401 35.4487C4.43685 35.9107 4.86984 36.2299 5.35638 36.2299H30.1413C30.6524 36.2299 31.101 35.8817 31.2238 35.3818C31.3488 34.8841 31.1166 34.3685 30.6658 34.1297Z" fill="white"/>
<path d="M35.3655 32.0094L32.0623 17.1385C31.982 16.7747 31.7253 16.4778 31.3794 16.3417C31.0312 16.2055 30.6406 16.2524 30.3371 16.4622L19.5951 23.8988C19.2737 24.122 19.0929 24.4947 19.1174 24.8808C19.1398 25.2714 19.3652 25.6196 19.7089 25.8004L33.7518 33.237C33.917 33.324 34.0956 33.3686 34.2741 33.3686C34.5129 33.3686 34.7517 33.2928 34.9504 33.1388C35.2963 32.8754 35.4592 32.4357 35.3655 32.0094Z" fill="white"/>
<path d="M27.5942 14.695C27.4469 14.2285 27.0161 13.9116 26.5274 13.9116H16.3411C14.4887 17.2661 11.7479 20.4733 10.6208 21.7276C9.98697 22.4329 9.0786 22.8391 8.13005 22.8391C7.18151 22.8391 6.27313 22.4329 5.63928 21.7276C5.20407 21.2433 4.53004 20.4689 3.75782 19.5092L1.05725 31.6639C0.959049 32.1125 1.14429 32.5745 1.52371 32.8312C1.71119 32.9584 1.92991 33.0209 2.1464 33.0209C2.36959 33.0209 2.59055 32.9562 2.78249 32.8223L27.1612 15.9426C27.5652 15.6681 27.737 15.1615 27.5942 14.695Z" fill="white"/>
<path d="M8.12991 0.52002C3.8224 0.52002 0.318359 4.02406 0.318359 8.33157C0.318359 12.34 6.58545 19.4396 7.29965 20.2364C7.51168 20.4707 7.81298 20.6069 8.12991 20.6069C8.44683 20.6069 8.74814 20.4707 8.96017 20.2364C9.67436 19.4396 15.9415 12.34 15.9415 8.33157C15.9415 4.02406 12.4374 0.52002 8.12991 0.52002ZM8.12991 11.6794C6.28192 11.6794 4.7821 10.1796 4.7821 8.33157C4.7821 6.48358 6.28192 4.98376 8.12991 4.98376C9.9779 4.98376 11.4777 6.48358 11.4777 8.33157C11.4777 10.1796 9.9779 11.6794 8.12991 11.6794Z" fill="white"/>
</g>
<defs>
<clipPath id="clip0_0_1918">
<rect width="35.7099" height="35.7099" fill="white" transform="translate(0 0.52002)"/>
</clipPath>
</defs>
</svg>
