<svg width="36" height="32" viewBox="0 0 36 32" fill="none" xmlns="http://www.w3.org/2000/svg">
<g clip-path="url(#clip0_0_1884)">
<path d="M1.17383 1.09424C0.621543 1.09424 0.173828 1.54195 0.173828 2.09424V5.76545C0.173828 6.31773 0.621543 6.76545 1.17383 6.76545H2.0504V30.4921C2.0504 31.0444 2.49812 31.4921 3.0504 31.4921H4.66995C5.22223 31.4921 5.66995 31.0444 5.66995 30.4921V6.76545H30.2056V30.4921C30.2056 31.0444 30.6533 31.4921 31.2056 31.4921H32.8251C33.3774 31.4921 33.8251 31.0444 33.8251 30.4921V6.76545H35.0046C35.5569 6.76545 36.0046 6.31773 36.0046 5.76545V2.09424C36.0046 1.54195 35.5569 1.09424 35.0046 1.09424H1.17383Z" fill="white"/>
<path d="M16.962 15.1011C16.962 14.5488 16.5143 14.1011 15.962 14.1011H8.41797C7.86568 14.1011 7.41797 14.5488 7.41797 15.1011L7.41797 30.4925C7.41797 31.0447 7.86568 31.4925 8.41797 31.4925H15.962C16.5143 31.4925 16.962 31.0447 16.962 30.4925V15.1011ZM15.8868 21.8143H8.49316V15.6033H15.8868V21.8143Z" fill="white"/>
<path d="M10.1445 16.9311L10.1445 20.2305L14.2324 20.2305L14.2324 16.9311L10.1445 16.9311Z" fill="white"/>
</g>
<defs>
<clipPath id="clip0_0_1884">
<rect width="36" height="31" fill="white" transform="translate(0 0.52002)"/>
</clipPath>
</defs>
</svg>
