<svg width="36" height="37" viewBox="0 0 36 37" fill="none" xmlns="http://www.w3.org/2000/svg">
<g clip-path="url(#clip0_0_1894)">
<path d="M29.4641 7.81328C29.3098 8.27402 29.0483 8.69808 28.706 9.04032L27.5761 10.1703C27.3809 10.3654 27.2695 10.6351 27.2695 10.9099V12.1359C27.2695 12.7132 27.7385 13.1821 28.3157 13.1821C30.0464 13.1821 31.4543 14.59 31.4543 16.3207V17.9196C31.4543 18.4039 31.3398 18.8892 31.1233 19.3224L30.7657 20.0375C30.5297 20.5085 30.7187 20.9059 30.8117 21.0551C30.9036 21.2043 31.1743 21.5516 31.7015 21.5516H35.4144C35.5971 20.5308 35.7088 19.4856 35.7088 18.4131C35.7088 13.3967 33.5433 8.8677 30.1914 5.63135L29.4641 7.81328Z" fill="white"/>
<path d="M9.13613 13.0749C8.89704 13.5091 9.05544 14.0802 9.49783 14.3744L11.672 15.8242C11.6454 14.1824 12.5741 12.5834 14.2057 11.7456C14.5112 11.5893 14.7155 11.1889 14.7155 10.7485V10.0436C14.7155 8.31288 16.1234 6.90499 17.8541 6.90499H19.1169C19.4581 6.90499 19.7687 6.74562 19.9669 6.46768C20.1661 6.18982 20.2172 5.84548 20.1069 5.52165L18.4513 0.588375C18.2514 0.581749 18.0557 0.558105 17.854 0.558105C12.1409 0.558105 6.99242 3.34662 3.73633 7.54624L7.08051 8.36498C9.13397 8.87518 10.1653 11.1973 9.13613 13.0749Z" fill="white"/>
<path d="M21.6693 7.68562C21.0818 8.50702 20.1277 8.99747 19.1172 8.99747H17.8544C17.2772 8.99747 16.8082 9.46644 16.8082 10.0437V10.7486C16.8082 11.9726 16.1615 13.0943 15.1613 13.6072C13.9455 14.2314 13.4347 15.6035 13.9987 16.7304L14.3166 17.3669H15.5148C17.3558 17.3669 19.012 18.3906 19.8365 20.0376C20.3033 20.9714 21.2423 21.5517 22.2864 21.5517H24.1316C24.7098 21.5517 25.1777 22.0196 25.1777 22.5979V24.6902C25.1777 26.1002 24.625 27.4222 23.6228 28.4122C22.0077 30.0062 20.4521 33.2898 19.3648 36.1916C26.6843 35.5718 32.8257 30.4421 34.922 23.6441H31.7021C30.6059 23.6441 29.6077 23.0873 29.0315 22.1555C28.4563 21.2237 28.4042 20.0815 28.8946 19.1017L29.2522 18.3865C29.3247 18.2425 29.3625 18.081 29.3625 17.9197V16.3207C29.3625 15.7435 28.8935 15.2745 28.3163 15.2745C26.5856 15.2745 25.1777 13.8666 25.1777 12.136V10.91C25.1777 10.0722 25.5047 9.2835 26.0973 8.69094L27.2272 7.56098C27.3417 7.44653 27.4285 7.30453 27.4806 7.15025L28.4715 4.17823C26.2374 2.50754 23.6049 1.28398 20.7379 0.813477L22.0872 4.84745C22.4131 5.80269 22.2568 6.86415 21.6693 7.68562Z" fill="white"/>
<path d="M16.126 36.1804C15.1327 34.1023 14.7164 29.8104 14.7164 27.9759C14.7164 27.4855 14.5254 27.0247 14.179 26.6784L12.9306 25.4299C12.5219 25.0213 12.5219 24.3592 12.9306 23.9505L13.5538 23.3273C14.1137 22.7674 14.2516 21.9153 13.8981 21.2083L12.8586 19.1292L8.3382 16.1153C7.00082 15.2244 6.54517 13.4466 7.3022 12.0674C7.66843 11.4034 7.30805 10.5777 6.57474 10.395L2.48589 9.38965C0.917229 12.039 0 15.1174 0 18.413C0 27.6365 7.12783 35.3078 16.126 36.1804Z" fill="white"/>
<path d="M23.0869 24.6904V23.6442H22.2879C20.4469 23.6442 18.7907 22.6205 17.9662 20.9736C17.4994 20.0398 16.5604 19.4595 15.5163 19.4595H15.364L15.7706 20.2727C16.5032 21.7378 16.2498 23.491 15.1484 24.6884L15.6593 25.1992C16.4011 25.941 16.8097 26.9269 16.8097 27.9762C16.8097 29.6752 17.1642 32.8151 17.7415 34.5907C18.6977 32.1908 20.2578 28.7946 22.1541 26.9238C22.7558 26.3292 23.0869 25.5364 23.0869 24.6904Z" fill="white"/>
</g>
<defs>
<clipPath id="clip0_0_1894">
<rect width="35.7099" height="35.7099" fill="white" transform="translate(0 0.52002)"/>
</clipPath>
</defs>
</svg>
